<svg width="160" height="180" viewBox="0 0 160 180" fill="none" xmlns="http://www.w3.org/2000/svg">
<g filter="url(#filter0_d_426_157)">
<rect x="25" y="15" width="110" height="130" rx="21" fill="white"/>
</g>
<path d="M49.4159 130V121.528H54.3479V122.56H50.6039V125.212H53.6399V126.244H50.6039V128.968H54.5519V130H49.4159ZM55.6425 130L57.7185 126.88L55.7625 123.928H57.0945L58.2225 125.776L58.4145 126.136H58.4385C58.5185 126 58.5865 125.88 58.6425 125.776L59.7705 123.928H61.1025L59.1465 126.88L61.2225 130H59.9025L58.6305 127.972L58.4385 127.648H58.4145C58.3585 127.768 58.2985 127.876 58.2345 127.972L56.9625 130H55.6425ZM62.692 132.4V123.928H63.772V124.468L63.736 124.924H63.76C63.952 124.564 64.228 124.284 64.588 124.084C64.948 123.884 65.352 123.784 65.8 123.784C66.616 123.784 67.264 124.076 67.744 124.66C68.224 125.244 68.464 126.012 68.464 126.964C68.464 127.924 68.208 128.696 67.696 129.28C67.184 129.856 66.524 130.144 65.716 130.144C64.908 130.144 64.28 129.8 63.832 129.112H63.808C63.84 129.256 63.856 129.432 63.856 129.64V132.4H62.692ZM63.82 126.988C63.82 127.564 63.972 128.068 64.276 128.5C64.588 128.924 65.008 129.136 65.536 129.136C66.032 129.136 66.448 128.944 66.784 128.56C67.12 128.168 67.288 127.64 67.288 126.976C67.288 126.32 67.128 125.796 66.808 125.404C66.496 125.004 66.084 124.804 65.572 124.804C65.076 124.804 64.66 124.988 64.324 125.356C63.988 125.724 63.82 126.268 63.82 126.988ZM69.8683 126.964C69.8683 126.012 70.1563 125.244 70.7323 124.66C71.3083 124.076 72.0363 123.784 72.9163 123.784C73.7403 123.784 74.3843 124.056 74.8483 124.6C75.3123 125.136 75.5443 125.812 75.5443 126.628C75.5443 126.732 75.5283 126.896 75.4963 127.12H71.0803C71.1123 127.752 71.3243 128.248 71.7163 128.608C72.1163 128.96 72.6003 129.136 73.1683 129.136C73.8323 129.136 74.4283 128.9 74.9563 128.428L75.4483 129.28C75.1603 129.544 74.8003 129.756 74.3683 129.916C73.9443 130.068 73.5203 130.144 73.0963 130.144C72.1523 130.144 71.3763 129.844 70.7683 129.244C70.1683 128.636 69.8683 127.876 69.8683 126.964ZM71.1163 126.28H74.3683C74.3523 125.776 74.2043 125.384 73.9243 125.104C73.6523 124.824 73.3083 124.684 72.8923 124.684C72.4363 124.684 72.0443 124.828 71.7163 125.116C71.3963 125.396 71.1963 125.784 71.1163 126.28ZM77.3092 130V123.928H78.4372V125.02L78.4012 125.464H78.4252C78.5772 125 78.8252 124.616 79.1692 124.312C79.5132 124.008 79.9092 123.856 80.3572 123.856C80.4372 123.856 80.5412 123.864 80.6692 123.88V125.032C80.6052 125.016 80.4932 125.008 80.3332 125.008C79.7252 125.008 79.2612 125.256 78.9412 125.752C78.6292 126.24 78.4732 126.816 78.4732 127.48V130H77.3092ZM82.1621 122.704V121.528H83.3621V122.704H82.1621ZM82.1861 130V123.928H83.3501V130H82.1861ZM85.1085 126.964C85.1085 126.012 85.3965 125.244 85.9725 124.66C86.5485 124.076 87.2765 123.784 88.1565 123.784C88.9805 123.784 89.6245 124.056 90.0885 124.6C90.5525 125.136 90.7845 125.812 90.7845 126.628C90.7845 126.732 90.7685 126.896 90.7365 127.12H86.3205C86.3525 127.752 86.5645 128.248 86.9565 128.608C87.3565 128.96 87.8405 129.136 88.4085 129.136C89.0725 129.136 89.6685 128.9 90.1965 128.428L90.6885 129.28C90.4005 129.544 90.0405 129.756 89.6085 129.916C89.1845 130.068 88.7605 130.144 88.3365 130.144C87.3925 130.144 86.6165 129.844 86.0085 129.244C85.4085 128.636 85.1085 127.876 85.1085 126.964ZM86.3565 126.28H89.6085C89.5925 125.776 89.4445 125.384 89.1645 125.104C88.8925 124.824 88.5485 124.684 88.1325 124.684C87.6765 124.684 87.2845 124.828 86.9565 125.116C86.6365 125.396 86.4365 125.784 86.3565 126.28ZM92.5494 130V123.928H93.6774V124.756L93.6414 125.212H93.6654C93.8174 124.868 94.0894 124.544 94.4814 124.24C94.8814 123.936 95.3774 123.784 95.9694 123.784C97.3534 123.784 98.0454 124.56 98.0454 126.112V130H96.8814V126.376C96.8814 125.888 96.8014 125.512 96.6414 125.248C96.4894 124.984 96.1894 124.852 95.7414 124.852C95.1574 124.852 94.6734 125.068 94.2894 125.5C93.9054 125.924 93.7134 126.452 93.7134 127.084V130H92.5494ZM99.7491 126.964C99.7491 126.06 100.053 125.304 100.661 124.696C101.277 124.088 102.057 123.784 103.001 123.784C103.961 123.784 104.721 124.08 105.281 124.672L104.729 125.488C104.265 125.024 103.705 124.792 103.049 124.792C102.441 124.792 101.937 125 101.537 125.416C101.137 125.824 100.937 126.336 100.937 126.952C100.937 127.576 101.137 128.096 101.537 128.512C101.945 128.928 102.461 129.136 103.085 129.136C103.421 129.136 103.757 129.064 104.093 128.92C104.437 128.768 104.725 128.568 104.957 128.32L105.425 129.172C105.145 129.468 104.789 129.704 104.357 129.88C103.925 130.056 103.473 130.144 103.001 130.144C102.049 130.144 101.269 129.844 100.661 129.244C100.053 128.644 99.7491 127.884 99.7491 126.964ZM106.524 126.964C106.524 126.012 106.812 125.244 107.388 124.66C107.964 124.076 108.692 123.784 109.572 123.784C110.396 123.784 111.04 124.056 111.504 124.6C111.968 125.136 112.2 125.812 112.2 126.628C112.2 126.732 112.184 126.896 112.152 127.12H107.736C107.768 127.752 107.98 128.248 108.372 128.608C108.772 128.96 109.256 129.136 109.824 129.136C110.488 129.136 111.084 128.9 111.612 128.428L112.104 129.28C111.816 129.544 111.456 129.756 111.024 129.916C110.6 130.068 110.176 130.144 109.752 130.144C108.808 130.144 108.032 129.844 107.424 129.244C106.824 128.636 106.524 127.876 106.524 126.964ZM107.772 126.28H111.024C111.008 125.776 110.86 125.384 110.58 125.104C110.308 124.824 109.964 124.684 109.548 124.684C109.092 124.684 108.7 124.828 108.372 125.116C108.052 125.396 107.852 125.784 107.772 126.28Z" fill="#6B779A"/>
<path d="M59.6005 109V107.224H62.0805V100.92L62.0965 100.152H62.0645C61.9685 100.333 61.7978 100.547 61.5525 100.792L60.6405 101.656L59.4245 100.376L62.2725 97.64H64.0805V107.224H66.5445V109H59.6005ZM74.4171 108.744C73.8731 109.043 73.2277 109.192 72.4811 109.192C71.7344 109.192 71.0837 109.043 70.5291 108.744C69.9851 108.445 69.5584 108.019 69.2491 107.464C68.9397 106.909 68.7104 106.291 68.5611 105.608C68.4224 104.925 68.3531 104.157 68.3531 103.304C68.3531 102.451 68.4224 101.683 68.5611 101C68.7104 100.317 68.9397 99.704 69.2491 99.16C69.5584 98.616 69.9851 98.1947 70.5291 97.896C71.0731 97.5973 71.7237 97.448 72.4811 97.448C75.2224 97.448 76.5931 99.4 76.5931 103.304C76.5931 104.157 76.5184 104.925 76.3691 105.608C76.2304 106.291 76.0064 106.909 75.6971 107.464C75.3984 108.019 74.9717 108.445 74.4171 108.744ZM70.4811 103.304C70.4811 105.971 71.1477 107.304 72.4811 107.304C73.8144 107.304 74.4811 105.971 74.4811 103.304C74.4811 100.669 73.8144 99.352 72.4811 99.352C71.1477 99.352 70.4811 100.669 70.4811 103.304ZM85.7081 109V104.248L81.9161 97.64H84.2521L86.0281 100.984L86.7161 102.504H86.7481C86.9721 101.96 87.2014 101.453 87.4361 100.984L89.1961 97.64H91.5321L87.7561 104.248V109H85.7081ZM92.2403 109V100.84H94.1923V102.28L94.1603 102.84H94.1923C94.3843 102.243 94.715 101.741 95.1843 101.336C95.6536 100.931 96.187 100.728 96.7843 100.728C96.8696 100.728 96.9976 100.739 97.1683 100.76V102.76C97.0616 102.739 96.8963 102.728 96.6723 102.728C95.883 102.728 95.2856 103.016 94.8803 103.592C94.475 104.168 94.2723 104.872 94.2723 105.704V109H92.2403ZM98.415 107.992L99.327 106.648C99.9777 107.245 100.751 107.544 101.647 107.544C102.01 107.544 102.287 107.475 102.479 107.336C102.682 107.187 102.783 106.984 102.783 106.728C102.783 106.493 102.644 106.291 102.367 106.12C102.09 105.949 101.754 105.795 101.359 105.656C100.964 105.517 100.564 105.357 100.159 105.176C99.7644 104.984 99.4284 104.712 99.151 104.36C98.8737 104.008 98.735 103.587 98.735 103.096C98.735 102.328 99.0284 101.731 99.615 101.304C100.212 100.867 100.959 100.648 101.855 100.648C102.986 100.648 103.903 100.957 104.607 101.576L103.855 103C103.62 102.797 103.306 102.632 102.911 102.504C102.527 102.365 102.154 102.296 101.791 102.296C101.034 102.296 100.655 102.557 100.655 103.08C100.655 103.315 100.794 103.517 101.071 103.688C101.348 103.859 101.684 104.013 102.079 104.152C102.484 104.291 102.884 104.451 103.279 104.632C103.674 104.803 104.01 105.064 104.287 105.416C104.564 105.768 104.703 106.189 104.703 106.68C104.703 107.405 104.42 108.008 103.855 108.488C103.29 108.957 102.543 109.192 101.615 109.192C100.314 109.192 99.247 108.792 98.415 107.992Z" fill="#222B45"/>
<path d="M56 15H105V63C105 71.2843 98.2843 78 90 78H71C62.7157 78 56 71.2843 56 63V15Z" fill="#FDF1F3"/>
<path fill-rule="evenodd" clip-rule="evenodd" d="M81.0363 63.1777C80.6942 62.9896 80.2806 62.9929 79.9473 63.192L75.8245 65.612L77.4393 59.331C78.4018 59.881 79.5139 60.2 80.6997 60.2C81.8855 60.2 82.9976 59.881 83.9612 59.331L85.5991 65.7022L81.0363 63.1777ZM80.6997 49.2C83.1263 49.2 85.0997 51.1734 85.0997 53.6C85.0997 56.0266 83.1263 58 80.6997 58C78.2731 58 76.2997 56.0266 76.2997 53.6C76.2997 51.1734 78.2731 49.2 80.6997 49.2ZM88.3656 67.6261L85.8257 57.7492C86.7453 56.614 87.2997 55.1719 87.2997 53.6C87.2997 49.9601 84.3396 47 80.6997 47C77.0609 47 74.0997 49.9601 74.0997 53.6C74.0997 55.1719 74.6541 56.614 75.5737 57.7492L73.0349 67.6261C72.9238 68.0573 73.0833 68.5116 73.4386 68.7789C73.7928 69.0462 74.2746 69.0704 74.6563 68.8482L80.5193 65.4063L86.7673 68.8625C86.9334 68.9549 87.1171 69 87.2997 69C87.5384 69 87.776 68.923 87.974 68.7701C88.3205 68.5017 88.4756 68.0518 88.3656 67.6261Z" fill="#E8899E"/>
<defs>
<filter id="filter0_d_426_157" x="0" y="0" width="160" height="180" filterUnits="userSpaceOnUse" color-interpolation-filters="sRGB">
<feFlood flood-opacity="0" result="BackgroundImageFix"/>
<feColorMatrix in="SourceAlpha" type="matrix" values="0 0 0 0 0 0 0 0 0 0 0 0 0 0 0 0 0 0 127 0" result="hardAlpha"/>
<feOffset dy="10"/>
<feGaussianBlur stdDeviation="12.5"/>
<feColorMatrix type="matrix" values="0 0 0 0 0.417878 0 0 0 0 0.466086 0 0 0 0 0.605356 0 0 0 0.05 0"/>
<feBlend mode="normal" in2="BackgroundImageFix" result="effect1_dropShadow_426_157"/>
<feBlend mode="normal" in="SourceGraphic" in2="effect1_dropShadow_426_157" result="shape"/>
</filter>
</defs>
</svg>
