<svg width="40" height="40" viewBox="0 0 40 40" fill="none" xmlns="http://www.w3.org/2000/svg">
<rect width="40" height="40" rx="10" fill="#D456FB"/>
<path fill-rule="evenodd" clip-rule="evenodd" d="M23.2004 20.7994C22.7588 20.7994 22.4004 20.441 22.4004 19.9994C22.4004 19.5578 22.7588 19.1994 23.2004 19.1994C23.642 19.1994 24.0004 19.5578 24.0004 19.9994C24.0004 20.441 23.642 20.7994 23.2004 20.7994ZM20.0002 20.7994C19.5586 20.7994 19.2002 20.441 19.2002 19.9994C19.2002 19.5578 19.5586 19.1994 20.0002 19.1994C20.4418 19.1994 20.8002 19.5578 20.8002 19.9994C20.8002 20.441 20.4418 20.7994 20.0002 20.7994ZM16.8 20.7994C16.3584 20.7994 16 20.441 16 19.9994C16 19.5578 16.3584 19.1994 16.8 19.1994C17.2416 19.1994 17.6 19.5578 17.6 19.9994C17.6 20.441 17.2416 20.7994 16.8 20.7994ZM25.6565 14.3425C23.8293 12.5153 21.3005 11.7001 18.7173 12.0993C15.4557 12.6081 12.7517 15.2353 12.1413 18.4889C11.8477 20.0553 12.0165 21.6505 12.6301 23.1009C12.7085 23.2849 12.7325 23.4577 12.7013 23.6121L12.0157 27.0425C11.9629 27.3049 12.0453 27.5761 12.2341 27.7649C12.3853 27.9161 12.5893 27.9993 12.7997 27.9993C12.8517 27.9993 12.9045 27.9945 12.9565 27.9833L16.3829 27.2985C16.5797 27.2609 16.7709 27.3161 16.8981 27.3689C18.3493 27.9825 19.9445 28.1505 21.5101 27.8577C24.7637 27.2473 27.3909 24.5433 27.8997 21.2817C28.3021 18.6993 27.4845 16.1705 25.6565 14.3425Z" fill="#FFA3E8"/>
</svg>
