<svg width="40" height="40" viewBox="0 0 40 40" fill="none" xmlns="http://www.w3.org/2000/svg">
<rect width="40" height="40" rx="10" fill="#C305FF" fill-opacity="0.59"/>
<path fill-rule="evenodd" clip-rule="evenodd" d="M24.32 28C17.5264 28 12 22.4736 12 15.68C12 13.6504 13.6512 12 15.68 12C15.888 12 16.0936 12.0176 16.2928 12.052C16.4872 12.0832 16.6832 12.1328 16.8728 12.1984C17.1336 12.2888 17.3288 12.5072 17.3904 12.776L18.4864 17.5472C18.5464 17.8096 18.4704 18.0848 18.284 18.28C17.7871 18.795 17.4063 19.4338 17.8053 20.0278C18.3832 20.8884 19.1201 21.6264 19.9693 22.1979C20.5643 22.5984 21.202 22.2129 21.72 21.7168C21.916 21.5296 22.192 21.4568 22.4536 21.5144L27.2248 22.6096C27.4928 22.6712 27.7112 22.8664 27.8016 23.1264C27.8672 23.3152 27.916 23.5104 27.9488 23.7112C27.9824 23.9088 28 24.1136 28 24.32C28 26.3496 26.3496 28 24.32 28Z" fill="#FFA3E8"/>
</svg>
