<svg width="40" height="40" viewBox="0 0 40 40" fill="none" xmlns="http://www.w3.org/2000/svg">
<rect width="40" height="40" rx="10" fill="#C305FF" fill-opacity="0.59"/>
<path fill-rule="evenodd" clip-rule="evenodd" d="M27.2096 16.1167C26.7088 15.8991 26.128 15.9935 25.7288 16.3615L24.8525 17.1725C24.5275 17.4733 24 17.2428 24 16.7999C24 15.4767 22.924 14.3999 21.6 14.3999H14.4C13.0768 14.3999 12 15.4767 12 16.7999V23.1999C12 24.5239 13.0768 25.5999 14.4 25.5999H21.6C22.924 25.5999 24 24.5239 24 23.1999C24 22.7572 24.5272 22.5267 24.8521 22.8274L25.7288 23.6383C25.9856 23.8759 26.3176 23.9999 26.656 23.9999C26.8424 23.9999 27.0304 23.9623 27.2096 23.8839C27.6968 23.6711 28 23.2159 28 22.6967V17.3039C28 16.7847 27.6968 16.3295 27.2096 16.1167Z" fill="#FFA3E8"/>
</svg>
