<svg width="160" height="180" viewBox="0 0 160 180" fill="none" xmlns="http://www.w3.org/2000/svg">
<g filter="url(#filter0_d_426_145)">
<rect x="25" y="15" width="110" height="130" rx="21" fill="white"/>
</g>
<path d="M58.3065 130V121.528H61.4145C62.1985 121.528 62.8345 121.772 63.3225 122.26C63.8185 122.74 64.0665 123.38 64.0665 124.18C64.0665 124.98 63.8185 125.628 63.3225 126.124C62.8265 126.62 62.1905 126.868 61.4145 126.868H59.4945V130H58.3065ZM59.4945 125.836H61.2225C61.7265 125.836 62.1265 125.688 62.4225 125.392C62.7185 125.096 62.8665 124.692 62.8665 124.18C62.8665 123.676 62.7185 123.28 62.4225 122.992C62.1345 122.704 61.7385 122.56 61.2345 122.56H59.4945V125.836ZM65.0884 128.344C65.0884 127.896 65.2124 127.52 65.4604 127.216C65.7084 126.912 66.0364 126.696 66.4444 126.568C66.8604 126.432 67.2444 126.34 67.5964 126.292C67.9484 126.244 68.3204 126.22 68.7124 126.22H69.0244V126.1C69.0244 125.212 68.5804 124.768 67.6924 124.768C67.1084 124.768 66.5404 124.964 65.9884 125.356L65.5204 124.504C65.7684 124.296 66.1044 124.124 66.5284 123.988C66.9524 123.852 67.3724 123.784 67.7884 123.784C68.5564 123.784 69.1484 123.988 69.5644 124.396C69.9804 124.804 70.1884 125.392 70.1884 126.16V130H69.0964V129.388L69.1324 128.908H69.1084C68.9244 129.268 68.6524 129.564 68.2924 129.796C67.9404 130.028 67.5484 130.144 67.1164 130.144C66.5644 130.144 66.0884 129.98 65.6884 129.652C65.2884 129.324 65.0884 128.888 65.0884 128.344ZM66.2524 128.248C66.2524 128.512 66.3524 128.74 66.5524 128.932C66.7524 129.124 67.0324 129.22 67.3924 129.22C67.8724 129.22 68.2644 129.02 68.5684 128.62C68.8724 128.22 69.0244 127.776 69.0244 127.288V127.06H68.7244C67.0764 127.06 66.2524 127.456 66.2524 128.248ZM72.5378 127.78V124.936H71.7458V123.988H72.5618V122.26H73.7018V123.988H75.1658V124.936H73.7018V127.648C73.7018 127.88 73.7338 128.084 73.7978 128.26C73.8618 128.428 73.9378 128.56 74.0258 128.656C74.1218 128.752 74.2298 128.828 74.3498 128.884C74.4778 128.94 74.5898 128.976 74.6858 128.992C74.7898 129.008 74.8938 129.016 74.9978 129.016C75.1018 129.016 75.1938 129.008 75.2738 128.992V130.024C75.0818 130.048 74.9458 130.06 74.8658 130.06C74.6818 130.06 74.4978 130.044 74.3138 130.012C74.1378 129.988 73.9378 129.932 73.7138 129.844C73.4898 129.748 73.2938 129.624 73.1258 129.472C72.9658 129.312 72.8258 129.088 72.7058 128.8C72.5938 128.504 72.5378 128.164 72.5378 127.78ZM76.8106 122.704V121.528H78.0106V122.704H76.8106ZM76.8346 130V123.928H77.9986V130H76.8346ZM79.7569 126.964C79.7569 126.012 80.0449 125.244 80.6209 124.66C81.1969 124.076 81.9249 123.784 82.8049 123.784C83.6289 123.784 84.2729 124.056 84.7369 124.6C85.2009 125.136 85.4329 125.812 85.4329 126.628C85.4329 126.732 85.4169 126.896 85.3849 127.12H80.9689C81.0009 127.752 81.2129 128.248 81.6049 128.608C82.0049 128.96 82.4889 129.136 83.0569 129.136C83.7209 129.136 84.3169 128.9 84.8449 128.428L85.3369 129.28C85.0489 129.544 84.6889 129.756 84.2569 129.916C83.8329 130.068 83.4089 130.144 82.9849 130.144C82.0409 130.144 81.2649 129.844 80.6569 129.244C80.0569 128.636 79.7569 127.876 79.7569 126.964ZM81.0049 126.28H84.2569C84.2409 125.776 84.0929 125.384 83.8129 125.104C83.5409 124.824 83.1969 124.684 82.7809 124.684C82.3249 124.684 81.9329 124.828 81.6049 125.116C81.2849 125.396 81.0849 125.784 81.0049 126.28ZM87.1978 130V123.928H88.3258V124.756L88.2898 125.212H88.3138C88.4658 124.868 88.7378 124.544 89.1298 124.24C89.5298 123.936 90.0258 123.784 90.6178 123.784C92.0018 123.784 92.6938 124.56 92.6938 126.112V130H91.5298V126.376C91.5298 125.888 91.4498 125.512 91.2898 125.248C91.1378 124.984 90.8378 124.852 90.3898 124.852C89.8058 124.852 89.3218 125.068 88.9378 125.5C88.5538 125.924 88.3618 126.452 88.3618 127.084V130H87.1978ZM95.0455 127.78V124.936H94.2535V123.988H95.0695V122.26H96.2095V123.988H97.6735V124.936H96.2095V127.648C96.2095 127.88 96.2415 128.084 96.3055 128.26C96.3695 128.428 96.4455 128.56 96.5335 128.656C96.6295 128.752 96.7375 128.828 96.8575 128.884C96.9855 128.94 97.0975 128.976 97.1935 128.992C97.2975 129.008 97.4015 129.016 97.5055 129.016C97.6095 129.016 97.7015 129.008 97.7815 128.992V130.024C97.5895 130.048 97.4535 130.06 97.3735 130.06C97.1895 130.06 97.0055 130.044 96.8215 130.012C96.6455 129.988 96.4455 129.932 96.2215 129.844C95.9975 129.748 95.8015 129.624 95.6335 129.472C95.4735 129.312 95.3335 129.088 95.2135 128.8C95.1015 128.504 95.0455 128.164 95.0455 127.78ZM98.8263 129.256L99.3783 128.464C99.8663 128.936 100.462 129.172 101.166 129.172C101.478 129.172 101.726 129.104 101.91 128.968C102.102 128.824 102.198 128.628 102.198 128.38C102.198 128.172 102.09 127.992 101.874 127.84C101.658 127.688 101.398 127.556 101.094 127.444C100.79 127.332 100.486 127.208 100.182 127.072C99.8783 126.936 99.6183 126.74 99.4023 126.484C99.1863 126.22 99.0783 125.904 99.0783 125.536C99.0783 124.984 99.2863 124.556 99.7023 124.252C100.118 123.94 100.638 123.784 101.262 123.784C102.078 123.784 102.734 124.008 103.23 124.456L102.762 125.296C102.586 125.128 102.354 124.996 102.066 124.9C101.786 124.804 101.506 124.756 101.226 124.756C100.914 124.756 100.662 124.82 100.47 124.948C100.286 125.076 100.194 125.264 100.194 125.512C100.194 125.728 100.302 125.912 100.518 126.064C100.734 126.216 100.994 126.348 101.298 126.46C101.602 126.564 101.906 126.684 102.21 126.82C102.522 126.956 102.786 127.156 103.002 127.42C103.218 127.676 103.326 127.988 103.326 128.356C103.326 128.876 103.122 129.304 102.714 129.64C102.306 129.976 101.782 130.144 101.142 130.144C100.182 130.144 99.4103 129.848 98.8263 129.256Z" fill="#6B779A"/>
<path d="M56.5334 111V109.113H59.1684V102.415L59.1854 101.599H59.1514C59.0494 101.792 58.8681 102.018 58.6074 102.279L57.6384 103.197L56.3464 101.837L59.3724 98.93H61.2934V109.113H63.9114V111H56.5334ZM72.276 110.728C71.698 111.045 71.0124 111.204 70.219 111.204C69.4257 111.204 68.7344 111.045 68.145 110.728C67.567 110.411 67.1137 109.957 66.785 109.368C66.4564 108.779 66.2127 108.121 66.054 107.396C65.9067 106.671 65.833 105.855 65.833 104.948C65.833 104.041 65.9067 103.225 66.054 102.5C66.2127 101.775 66.4564 101.123 66.785 100.545C67.1137 99.967 67.567 99.5193 68.145 99.202C68.723 98.8847 69.4144 98.726 70.219 98.726C73.1317 98.726 74.588 100.8 74.588 104.948C74.588 105.855 74.5087 106.671 74.35 107.396C74.2027 108.121 73.9647 108.779 73.636 109.368C73.3187 109.957 72.8654 110.411 72.276 110.728ZM68.094 104.948C68.094 107.781 68.8024 109.198 70.219 109.198C71.6357 109.198 72.344 107.781 72.344 104.948C72.344 102.149 71.6357 100.749 70.219 100.749C68.8024 100.749 68.094 102.149 68.094 104.948ZM83.4682 110.728C82.8902 111.045 82.2046 111.204 81.4112 111.204C80.6179 111.204 79.9266 111.045 79.3372 110.728C78.7592 110.411 78.3059 109.957 77.9772 109.368C77.6486 108.779 77.4049 108.121 77.2462 107.396C77.0989 106.671 77.0252 105.855 77.0252 104.948C77.0252 104.041 77.0989 103.225 77.2462 102.5C77.4049 101.775 77.6486 101.123 77.9772 100.545C78.3059 99.967 78.7592 99.5193 79.3372 99.202C79.9152 98.8847 80.6066 98.726 81.4112 98.726C84.3239 98.726 85.7802 100.8 85.7802 104.948C85.7802 105.855 85.7009 106.671 85.5422 107.396C85.3949 108.121 85.1569 108.779 84.8282 109.368C84.5109 109.957 84.0576 110.411 83.4682 110.728ZM79.2862 104.948C79.2862 107.781 79.9946 109.198 81.4112 109.198C82.8279 109.198 83.5362 107.781 83.5362 104.948C83.5362 102.149 82.8279 100.749 81.4112 100.749C79.9946 100.749 79.2862 102.149 79.2862 104.948ZM94.6604 110.728C94.0824 111.045 93.3968 111.204 92.6034 111.204C91.8101 111.204 91.1188 111.045 90.5294 110.728C89.9514 110.411 89.4981 109.957 89.1694 109.368C88.8408 108.779 88.5971 108.121 88.4384 107.396C88.2911 106.671 88.2174 105.855 88.2174 104.948C88.2174 104.041 88.2911 103.225 88.4384 102.5C88.5971 101.775 88.8408 101.123 89.1694 100.545C89.4981 99.967 89.9514 99.5193 90.5294 99.202C91.1074 98.8847 91.7988 98.726 92.6034 98.726C95.5161 98.726 96.9724 100.8 96.9724 104.948C96.9724 105.855 96.8931 106.671 96.7344 107.396C96.5871 108.121 96.3491 108.779 96.0204 109.368C95.7031 109.957 95.2498 110.411 94.6604 110.728ZM90.4784 104.948C90.4784 107.781 91.1868 109.198 92.6034 109.198C94.0201 109.198 94.7284 107.781 94.7284 104.948C94.7284 102.149 94.0201 100.749 92.6034 100.749C91.1868 100.749 90.4784 102.149 90.4784 104.948ZM98.8826 106.988V105.305H102.572V101.276H104.323V105.305H107.995V106.988H104.323V111H102.572V106.988H98.8826Z" fill="#222B45"/>
<path d="M56 15H105V63C105 71.2843 98.2843 78 90 78H71C62.7157 78 56 71.2843 56 63V15Z" fill="#7ACEFA" fill-opacity="0.15"/>
<path fill-rule="evenodd" clip-rule="evenodd" d="M92.2 66.5556C92.2 67.2302 91.6591 67.7778 90.99 67.7778C90.3209 67.7778 89.78 67.2302 89.78 66.5556C89.78 64.534 88.1513 62.8889 86.15 62.8889C85.3236 62.8889 84.5383 63.1749 83.9042 63.6821C84.5625 64.8994 84.94 66.2952 84.94 67.7778C84.94 68.4524 84.3991 69 83.73 69C83.0609 69 82.52 68.4524 82.52 67.7778C82.52 64.4081 79.806 61.6667 76.47 61.6667C73.134 61.6667 70.42 64.4081 70.42 67.7778C70.42 68.4524 69.8791 69 69.21 69C68.5409 69 68 68.4524 68 67.7778C68 63.06 71.8006 59.2222 76.47 59.2222C78.8017 59.2222 80.9143 60.1792 82.4474 61.7229C83.4989 60.9016 84.7936 60.4444 86.15 60.4444C89.486 60.4444 92.2 63.1859 92.2 66.5556ZM86.15 54.3333C86.8179 54.3333 87.36 54.8821 87.36 55.5556C87.36 56.229 86.8179 56.7778 86.15 56.7778C85.4821 56.7778 84.94 56.229 84.94 55.5556C84.94 54.8821 85.4821 54.3333 86.15 54.3333ZM86.15 59.2222C88.1513 59.2222 89.78 57.5771 89.78 55.5556C89.78 53.534 88.1513 51.8889 86.15 51.8889C84.1487 51.8889 82.52 53.534 82.52 55.5556C82.52 57.5771 84.1487 59.2222 86.15 59.2222ZM76.47 49.4444C77.8046 49.4444 78.89 50.5408 78.89 51.8889C78.89 53.237 77.8046 54.3333 76.47 54.3333C75.1354 54.3333 74.05 53.237 74.05 51.8889C74.05 50.5408 75.1354 49.4444 76.47 49.4444ZM76.47 56.7778C79.1393 56.7778 81.31 54.5851 81.31 51.8889C81.31 49.1927 79.1393 47 76.47 47C73.8007 47 71.63 49.1927 71.63 51.8889C71.63 54.5851 73.8007 56.7778 76.47 56.7778Z" fill="#7ACEFA"/>
<defs>
<filter id="filter0_d_426_145" x="0" y="0" width="160" height="180" filterUnits="userSpaceOnUse" color-interpolation-filters="sRGB">
<feFlood flood-opacity="0" result="BackgroundImageFix"/>
<feColorMatrix in="SourceAlpha" type="matrix" values="0 0 0 0 0 0 0 0 0 0 0 0 0 0 0 0 0 0 127 0" result="hardAlpha"/>
<feOffset dy="10"/>
<feGaussianBlur stdDeviation="12.5"/>
<feColorMatrix type="matrix" values="0 0 0 0 0.417878 0 0 0 0 0.466086 0 0 0 0 0.605356 0 0 0 0.05 0"/>
<feBlend mode="normal" in2="BackgroundImageFix" result="effect1_dropShadow_426_145"/>
<feBlend mode="normal" in="SourceGraphic" in2="effect1_dropShadow_426_145" result="shape"/>
</filter>
</defs>
</svg>
