<svg width="160" height="180" viewBox="0 0 160 180" fill="none" xmlns="http://www.w3.org/2000/svg">
<g filter="url(#filter0_d_426_167)">
<rect x="25" y="15" width="110" height="130" rx="21" fill="white"/>
</g>
<path d="M60.659 130V121.528H63.347C64.059 121.528 64.583 121.604 64.919 121.756C65.335 121.94 65.663 122.224 65.903 122.608C66.143 122.992 66.263 123.448 66.263 123.976C66.263 124.52 66.123 125.008 65.843 125.44C65.571 125.864 65.207 126.152 64.751 126.304V126.328C64.815 126.408 64.895 126.536 64.991 126.712L66.791 130H65.447L63.659 126.628H61.847V130H60.659ZM61.847 125.596H63.551C64.015 125.596 64.383 125.456 64.655 125.176C64.927 124.888 65.063 124.508 65.063 124.036C65.063 123.372 64.799 122.928 64.271 122.704C64.055 122.608 63.715 122.56 63.251 122.56H61.847V125.596ZM67.8394 128.344C67.8394 127.896 67.9634 127.52 68.2114 127.216C68.4594 126.912 68.7874 126.696 69.1954 126.568C69.6114 126.432 69.9954 126.34 70.3474 126.292C70.6994 126.244 71.0714 126.22 71.4634 126.22H71.7754V126.1C71.7754 125.212 71.3314 124.768 70.4434 124.768C69.8594 124.768 69.2914 124.964 68.7394 125.356L68.2714 124.504C68.5194 124.296 68.8554 124.124 69.2794 123.988C69.7034 123.852 70.1234 123.784 70.5394 123.784C71.3074 123.784 71.8994 123.988 72.3154 124.396C72.7314 124.804 72.9394 125.392 72.9394 126.16V130H71.8474V129.388L71.8834 128.908H71.8594C71.6754 129.268 71.4034 129.564 71.0434 129.796C70.6914 130.028 70.2994 130.144 69.8674 130.144C69.3154 130.144 68.8394 129.98 68.4394 129.652C68.0394 129.324 67.8394 128.888 67.8394 128.344ZM69.0034 128.248C69.0034 128.512 69.1034 128.74 69.3034 128.932C69.5034 129.124 69.7834 129.22 70.1434 129.22C70.6234 129.22 71.0154 129.02 71.3194 128.62C71.6234 128.22 71.7754 127.776 71.7754 127.288V127.06H71.4754C69.8274 127.06 69.0034 127.456 69.0034 128.248ZM75.2887 127.78V124.936H74.4967V123.988H75.3127V122.26H76.4527V123.988H77.9167V124.936H76.4527V127.648C76.4527 127.88 76.4847 128.084 76.5487 128.26C76.6127 128.428 76.6887 128.56 76.7767 128.656C76.8727 128.752 76.9807 128.828 77.1007 128.884C77.2287 128.94 77.3407 128.976 77.4367 128.992C77.5407 129.008 77.6447 129.016 77.7487 129.016C77.8527 129.016 77.9447 129.008 78.0247 128.992V130.024C77.8327 130.048 77.6967 130.06 77.6167 130.06C77.4327 130.06 77.2487 130.044 77.0647 130.012C76.8887 129.988 76.6887 129.932 76.4647 129.844C76.2407 129.748 76.0447 129.624 75.8767 129.472C75.7167 129.312 75.5767 129.088 75.4567 128.8C75.3447 128.504 75.2887 128.164 75.2887 127.78ZM79.5615 122.704V121.528H80.7615V122.704H79.5615ZM79.5855 130V123.928H80.7495V130H79.5855ZM82.9039 130V123.928H84.0319V124.756L83.9959 125.212H84.0199C84.1719 124.868 84.4439 124.544 84.8359 124.24C85.2359 123.936 85.7319 123.784 86.3239 123.784C87.7079 123.784 88.3999 124.56 88.3999 126.112V130H87.2359V126.376C87.2359 125.888 87.1559 125.512 86.9959 125.248C86.8439 124.984 86.5439 124.852 86.0959 124.852C85.5119 124.852 85.0279 125.068 84.6439 125.5C84.2599 125.924 84.0679 126.452 84.0679 127.084V130H82.9039ZM91.0756 131.104C91.6196 131.376 92.1756 131.512 92.7436 131.512C93.3116 131.512 93.7716 131.372 94.1236 131.092C94.4836 130.82 94.6636 130.396 94.6636 129.82V129.328L94.6996 128.944H94.6756C94.2836 129.6 93.6756 129.928 92.8516 129.928C92.0276 129.928 91.3676 129.636 90.8716 129.052C90.3836 128.468 90.1396 127.728 90.1396 126.832C90.1396 125.936 90.3756 125.204 90.8476 124.636C91.3196 124.068 91.9676 123.784 92.7916 123.784C93.1996 123.784 93.5756 123.86 93.9196 124.012C94.2636 124.164 94.5276 124.396 94.7116 124.708H94.7476C94.7236 124.66 94.7116 124.6 94.7116 124.528V123.928H95.8276V129.748C95.8276 130.228 95.7396 130.652 95.5636 131.02C95.3956 131.388 95.1636 131.676 94.8676 131.884C94.5716 132.1 94.2476 132.26 93.8956 132.364C93.5436 132.468 93.1676 132.52 92.7676 132.52C92.0556 132.52 91.3636 132.352 90.6916 132.016L91.0756 131.104ZM91.3156 126.796C91.3156 127.436 91.4716 127.952 91.7836 128.344C92.1036 128.728 92.5356 128.92 93.0796 128.92C93.5516 128.92 93.9356 128.756 94.2316 128.428C94.5356 128.1 94.6876 127.568 94.6876 126.832C94.6876 125.472 94.1156 124.792 92.9716 124.792C92.4516 124.792 92.0436 124.972 91.7476 125.332C91.4596 125.684 91.3156 126.172 91.3156 126.796ZM97.4738 129.256L98.0258 128.464C98.5138 128.936 99.1098 129.172 99.8138 129.172C100.126 129.172 100.374 129.104 100.558 128.968C100.75 128.824 100.846 128.628 100.846 128.38C100.846 128.172 100.738 127.992 100.522 127.84C100.306 127.688 100.046 127.556 99.7418 127.444C99.4378 127.332 99.1338 127.208 98.8298 127.072C98.5258 126.936 98.2658 126.74 98.0498 126.484C97.8338 126.22 97.7258 125.904 97.7258 125.536C97.7258 124.984 97.9338 124.556 98.3498 124.252C98.7658 123.94 99.2858 123.784 99.9098 123.784C100.726 123.784 101.382 124.008 101.878 124.456L101.41 125.296C101.234 125.128 101.002 124.996 100.714 124.9C100.434 124.804 100.154 124.756 99.8738 124.756C99.5618 124.756 99.3098 124.82 99.1178 124.948C98.9338 125.076 98.8418 125.264 98.8418 125.512C98.8418 125.728 98.9498 125.912 99.1658 126.064C99.3818 126.216 99.6418 126.348 99.9458 126.46C100.25 126.564 100.554 126.684 100.858 126.82C101.17 126.956 101.434 127.156 101.65 127.42C101.866 127.676 101.974 127.988 101.974 128.356C101.974 128.876 101.77 129.304 101.362 129.64C100.954 129.976 100.43 130.144 99.7898 130.144C98.8298 130.144 98.0578 129.848 97.4738 129.256Z" fill="#6B779A"/>
<path d="M68.9239 107.889V106.546L74.1429 98.93H76.7269V106.07H78.2909V107.889H76.7269V111H74.5679V107.889H68.9239ZM71.2359 106.07H74.5679V102.33L74.6529 101.072H74.6189C74.4375 101.503 74.2392 101.871 74.0239 102.177L71.2359 106.036V106.07ZM80.5786 111V108.824H82.7376V111H80.5786ZM85.1214 109.572L86.2604 107.923C86.9971 108.728 87.8528 109.13 88.8274 109.13C89.4394 109.13 89.9664 108.943 90.4084 108.569C90.8618 108.184 91.0884 107.685 91.0884 107.073C91.0884 106.45 90.8618 105.945 90.4084 105.56C89.9551 105.175 89.3771 104.982 88.6744 104.982C88.0058 104.982 87.3824 105.152 86.8044 105.492L85.5804 105.05L86.1414 98.93H92.4994V100.817H88.0454L87.8584 102.806L87.7734 103.367H87.8074C88.1474 103.186 88.5781 103.095 89.0994 103.095C90.3914 103.095 91.4228 103.475 92.1934 104.234C92.9641 104.993 93.3494 105.934 93.3494 107.056C93.3494 108.246 92.9358 109.238 92.1084 110.031C91.2811 110.813 90.2441 111.204 88.9974 111.204C88.2608 111.204 87.5524 111.062 86.8724 110.779C86.1924 110.496 85.6088 110.093 85.1214 109.572Z" fill="#222B45"/>
<path d="M56 15H105V63C105 71.2843 98.2843 78 90 78H71C62.7157 78 56 71.2843 56 63V15Z" fill="#FEF6EC"/>
<path fill-rule="evenodd" clip-rule="evenodd" d="M80.6057 63.3068C80.7902 63.3068 80.9748 63.3509 81.1431 63.4379L85.5175 65.7243L84.6853 60.8996C84.6191 60.5213 84.7457 60.1359 85.0219 59.8678L88.5455 56.4602L83.6674 55.7499C83.2902 55.6954 82.9641 55.4598 82.7946 55.1186L80.6057 50.7152L78.4168 55.1186C78.2473 55.4598 77.9212 55.6954 77.544 55.7499L72.6659 56.4602L76.1895 59.8678C76.4658 60.1359 76.5923 60.5213 76.5261 60.8996L75.6939 65.7243L80.0683 63.4379C80.2366 63.3509 80.4212 63.3068 80.6057 63.3068ZM87.0611 68.9996C86.8766 68.9996 86.692 68.9567 86.5237 68.8685L80.6057 65.7766L74.6877 68.8685C74.2954 69.0727 73.8219 69.0368 73.4679 68.7768C73.1104 68.5168 72.9328 68.0769 73.0071 67.6417L74.1352 61.1097L69.3535 56.4846C69.0343 56.177 68.9206 55.7151 69.0563 55.2938C69.191 54.8725 69.5554 54.5661 69.993 54.5023L76.6097 53.5413L79.5658 47.5919C79.9581 46.8027 81.2533 46.8027 81.6456 47.5919L84.6017 53.5413L91.2184 54.5023C91.656 54.5661 92.0204 54.8725 92.1551 55.2938C92.2909 55.7151 92.1771 56.177 91.858 56.4846L87.0762 61.1097L88.2043 67.6417C88.2786 68.0769 88.101 68.5168 87.7435 68.7768C87.5428 68.9253 87.3025 68.9996 87.0611 68.9996Z" fill="#F7C480"/>
<defs>
<filter id="filter0_d_426_167" x="0" y="0" width="160" height="180" filterUnits="userSpaceOnUse" color-interpolation-filters="sRGB">
<feFlood flood-opacity="0" result="BackgroundImageFix"/>
<feColorMatrix in="SourceAlpha" type="matrix" values="0 0 0 0 0 0 0 0 0 0 0 0 0 0 0 0 0 0 127 0" result="hardAlpha"/>
<feOffset dy="10"/>
<feGaussianBlur stdDeviation="12.5"/>
<feColorMatrix type="matrix" values="0 0 0 0 0.417878 0 0 0 0 0.466086 0 0 0 0 0.605356 0 0 0 0.05 0"/>
<feBlend mode="normal" in2="BackgroundImageFix" result="effect1_dropShadow_426_167"/>
<feBlend mode="normal" in="SourceGraphic" in2="effect1_dropShadow_426_167" result="shape"/>
</filter>
</defs>
</svg>
